<?xml version="1.0" standalone="no"?>
<!DOCTYPE svg PUBLIC "-//W3C//DTD SVG 20010904//EN"
 "http://www.w3.org/TR/2001/REC-SVG-20010904/DTD/svg10.dtd">
<svg version="1.0" xmlns="http://www.w3.org/2000/svg"
 width="80.000000pt" height="80.000000pt" viewBox="0 0 80.000000 80.000000"
 preserveAspectRatio="xMidYMid meet">
<metadata>
Created by potrace 1.14, written by Peter Selinger 2001-2017
</metadata>
<g transform="translate(0.000000,80.000000) scale(0.100000,-0.100000)"
fill="#000000" stroke="none">
<path d="M275 763 c-159 -57 -272 -221 -264 -384 3 -58 6 -63 35 -44 38 25 79
26 103 4 35 -33 25 -81 -31 -144 l-32 -38 49 -44 c128 -116 299 -140 447 -61
133 71 208 201 204 356 -1 45 -7 87 -13 93 -7 7 -24 2 -58 -19 -54 -33 -89
-34 -117 -2 -23 28 -12 57 36 91 91 63 87 51 34 103 -74 70 -145 99 -253 103
-68 3 -102 -1 -140 -14z m253 -60 c30 -40 5 -99 -75 -175 -27 -25 -60 -66 -75
-92 -23 -38 -32 -46 -57 -46 -20 0 -35 8 -45 22 -21 29 -20 46 4 88 11 19 35
64 54 100 36 70 54 89 101 114 34 18 74 13 93 -11z m18 -375 c14 -27 14 -33
-6 -73 -25 -52 -26 -53 -115 -100 -38 -21 -86 -46 -105 -56 -19 -11 -43 -16
-55 -13 -29 8 -55 42 -48 62 9 25 44 62 60 62 7 0 44 30 82 67 99 95 156 111
187 51z"/>
</g>
</svg>
